<svg xmlns="http://www.w3.org/2000/svg" viewBox="0 0 501.64 101.84"><defs><style>.cls-1{fill:#fff;}</style></defs><title>LOGO</title><g id="Layer_2" data-name="Layer 2"><polygon class="cls-1" points="155.75 3.38 144.19 3.38 129.16 98.46 184.21 98.46 185.68 89.02 142.19 89.02 155.75 3.38"/><path class="cls-1" d="M248.71,2.18c-28.86,0-51.06,24.47-51.06,54.79,0,24.47,17.15,42.69,43.48,42.69,28.06,0,50.27-23.14,50.27-54.65C291.39,21.73,276.1,2.18,248.71,2.18Zm-7.45,88c-18.48,0-31.65-12.5-31.65-33.25,0-24.6,15-45.48,39-45.48,19.95,0,30.85,15,30.85,33.51C279.43,70.93,263.87,90.21,241.26,90.21Z"/><path class="cls-1" d="M352.7,60h28.19c-2.79,17.55-12.77,30.32-31.78,30.32-20.88,0-31.52-13.3-31.52-33.64,0-25,14.23-45.35,37.5-45.35,14.1,0,24.6,6.52,25.93,20.74h11.44c-1.33-20.35-17.82-29.92-37.1-29.92-28.72,0-49.73,24.87-49.73,54.52,0,24.47,15.56,43,43.22,43,25.67,0,41.76-14.89,44.68-49.2H354.29Z"/><path class="cls-1" d="M458.95,2.18c-28.86,0-51.06,24.47-51.06,54.79,0,24.47,17.15,42.69,43.48,42.69,28.06,0,50.27-23.14,50.27-54.65C501.64,21.73,486.34,2.18,458.95,2.18Zm-7.45,88c-18.48,0-31.65-12.5-31.65-33.25,0-24.6,15-45.48,39-45.48,19.95,0,30.85,15,30.85,33.51C489.67,70.93,474.11,90.21,451.5,90.21Z"/><polygon class="cls-1" points="91.63 0 16.09 0 0 101.84 75.03 101.84 91.63 0"/></g></svg>